HIERARCHY
ROOT Hips
{
	OFFSET 0.000000 0.000000 0.000000
	CHANNELS 6 Xposition Yposition Zposition Zrotation Yrotation Xrotation 
	JOINT LowerBack
	{
		OFFSET 0.000000 0.000000 0.000000
		CHANNELS 3 Zrotation Yrotation Xrotation
		JOINT Spine
		{
			OFFSET 0.028270 2.035590 -0.193380
			CHANNELS 3 Zrotation Yrotation Xrotation
			JOINT Spine1
			{
				OFFSET 0.056720 2.048850 -0.042750
				CHANNELS 3 Zrotation Yrotation Xrotation
				JOINT Neck
				{
					OFFSET 0.000000 0.000000 0.000000
					CHANNELS 3 Zrotation Yrotation Xrotation
					JOINT Neck1
					{
						OFFSET -0.054170 1.746240 0.172020
						CHANNELS 3 Zrotation Yrotation Xrotation
						JOINT Head
						{
							OFFSET 0.104070 1.761360 -0.123970
							CHANNELS 3 Zrotation Yrotation Xrotation
							End Site
							{
								OFFSET 0.000000 0.000000 0.000000
							}
						}
					}
				}
				JOINT LeftShoulder
				{
					OFFSET 0.000000 0.000000 0.000000
					CHANNELS 3 Zrotation Yrotation Xrotation
					JOINT LeftArm
					{
						OFFSET 3.362410 1.200890 -0.311210
						CHANNELS 3 Zrotation Yrotation Xrotation
						JOINT LeftForeArm
						{
							OFFSET 4.983000 -0.000000 -0.000000
							CHANNELS 3 Zrotation Yrotation Xrotation
							JOINT LeftHand
							{
								OFFSET 3.483560 -0.000000 -0.000000
								CHANNELS 3 Zrotation Yrotation Xrotation
								JOINT LeftFingerBase
								{
									OFFSET 0.000000 0.000000 0.000000
									CHANNELS 3 Zrotation Yrotation Xrotation
									JOINT LeftHandIndex1
									{
										OFFSET 0.715260 -0.000000 -0.000000
										CHANNELS 3 Zrotation Yrotation Xrotation
										End Site
										{
											OFFSET 0.000000 0.000000 0.000000
										}
									}
								}
								JOINT LThumb
								{
									OFFSET 0.000000 0.000000 0.000000
									CHANNELS 3 Zrotation Yrotation Xrotation
									End Site
									{
										OFFSET 0.000000 0.000000 0.000000
									}
								}
							}
						}
					}
				}
				JOINT RightShoulder
				{
					OFFSET 0.000000 0.000000 0.000000
					CHANNELS 3 Zrotation Yrotation Xrotation
					JOINT RightArm
					{
						OFFSET -3.136600 1.374050 -0.404650
						CHANNELS 3 Zrotation Yrotation Xrotation
						JOINT RightForeArm
						{
							OFFSET -5.241900 -0.000000 -0.000000
							CHANNELS 3 Zrotation Yrotation Xrotation
							JOINT RightHand
							{
								OFFSET -3.444170 -0.000000 -0.000000
								CHANNELS 3 Zrotation Yrotation Xrotation
								JOINT RightFingerBase
								{
									OFFSET 0.000000 0.000000 0.000000
									CHANNELS 3 Zrotation Yrotation Xrotation
									JOINT RightHandIndex1
									{
										OFFSET -0.622530 -0.000000 -0.000000
										CHANNELS 3 Zrotation Yrotation Xrotation
										End Site
										{
											OFFSET 0.000000 0.000000 0.000000
										}
									}
								}
								JOINT RThumb
								{
									OFFSET 0.000000 0.000000 0.000000
									CHANNELS 3 Zrotation Yrotation Xrotation
									End Site
									{
										OFFSET 0.000000 0.000000 0.000000
									}
								}
							}
						}
					}
				}
			}
		}
	}
}
}
MOTION
Frames: 7
Frame Time: 0.008333
2.477258 15.587958 1.286656 1.493842 69.086502 18.275749 5.826805 -0.441170 -4.081802 0.592478 -1.018099 -3.681097 -5.189514 -1.014929 -0.167074 5.116836 -2.652059 -7.830011 -2.829589 -0.202859 -0.102142 0.000000 0.000000 0.000000 7.633838 11.497726 2.283386 -49.301650 -2.080569 9.245256 -0.668236 -74.728735 -0.054886 11.039286 0.753637 0.047970 -0.267946 0.290624 0.000000 0.000000 0.000000 0.000000 0.000000 0.000000 0.000000 6.729592 3.310105 0.469078 63.006676 36.138505 -12.295412 -0.057795 40.345820 -0.087541 -14.337609 9.371244 -1.246028 0.110543 -0.436864 0.000000 0.000000 0.000000 0.000000 0.000000 0.000000 0.000000 
2.680743 15.686556 1.291870 1.956208 68.803963 18.845954 5.215294 -0.221906 -4.076711 0.496587 -0.743510 -3.708855 -4.984493 -0.743235 -0.267109 4.750294 -2.332445 -7.760085 -2.582701 -0.185712 -0.078899 0.000000 0.000000 0.000000 6.917396 11.471460 2.609971 -50.681747 -0.932783 11.099033 -1.015601 -69.278031 -0.041833 9.834991 1.052524 0.073679 -0.255211 0.240406 0.000000 0.000000 0.000000 0.000000 0.000000 0.000000 0.000000 5.312519 3.728145 0.201377 60.940312 38.129958 -12.251365 -0.421494 42.691965 -0.099412 -14.527248 9.339535 -1.262669 0.102855 -0.473648 0.000000 0.000000 0.000000 0.000000 0.000000 0.000000 0.000000 
2.895181 15.798255 1.296695 2.457506 68.572513 19.469212 4.618688 -0.001512 -4.138948 0.404712 -0.470827 -3.749587 -4.774813 -0.474903 -0.357390 4.368595 -2.141603 -7.717057 -2.338322 -0.168737 -0.060572 0.000000 0.000000 0.000000 6.192109 11.486559 2.882782 -52.002699 0.270104 12.659040 -1.402539 -63.899550 -0.030843 8.559274 1.300168 0.086889 -0.243326 0.194010 0.000000 0.000000 0.000000 0.000000 0.000000 0.000000 0.000000 3.876627 3.970945 -0.083069 58.617528 39.874889 -12.681432 -0.760838 44.982072 -0.111609 -14.730528 9.287266 -1.277714 0.094518 -0.509769 0.000000 0.000000 0.000000 0.000000 0.000000 0.000000 0.000000 
3.120787 15.922568 1.301282 2.994582 68.396181 20.147146 4.035944 0.216586 -4.274954 0.317101 -0.203550 -3.806263 -4.561625 -0.214038 -0.445015 3.979533 -2.063157 -7.689479 -2.099473 -0.152240 -0.044015 0.000000 0.000000 0.000000 5.460225 11.544437 3.099831 -53.288442 1.564379 13.824040 -1.807134 -58.663271 -0.022269 7.290429 1.509086 0.090803 -0.232732 0.152326 0.000000 0.000000 0.000000 0.000000 0.000000 0.000000 0.000000 2.438918 4.062309 -0.383549 56.101352 41.332568 -13.569269 -1.061305 47.202139 -0.123829 -14.939914 9.236860 -1.293362 0.085977 -0.544719 0.000000 0.000000 0.000000 0.000000 0.000000 0.000000 0.000000 
3.357524 16.058665 1.305595 3.554779 68.271919 20.871560 3.467688 0.431359 -4.488717 0.234243 0.057135 -3.879497 -4.345845 0.037911 -0.530679 3.589818 -2.082907 -7.671935 -1.868273 -0.136384 -0.027971 0.000000 0.000000 0.000000 4.727596 11.659715 3.262897 -54.554498 2.959864 14.492957 -2.208648 -53.618065 -0.016148 6.129960 1.683994 0.088423 -0.223956 0.116156 0.000000 0.000000 0.000000 0.000000 0.000000 0.000000 0.000000 1.014636 4.026843 -0.698372 53.454851 42.481878 -14.863678 -1.312494 49.342566 -0.135863 -15.160770 9.204882 -1.312207 0.077862 -0.578054 0.000000 0.000000 0.000000 0.000000 0.000000 0.000000 0.000000 
3.605012 16.205449 1.309513 4.119901 68.190294 21.627538 2.915869 0.643785 -4.780889 0.156557 0.312011 -3.967735 -4.128762 0.281754 -0.609960 3.205681 -2.188772 -7.663984 -1.646422 -0.121232 -0.012748 0.000000 0.000000 0.000000 4.003072 11.853415 3.377153 -55.805455 4.442865 14.572757 -2.589907 -48.793962 -0.012187 5.182986 1.823032 0.083153 -0.217392 0.086023 0.000000 0.000000 0.000000 0.000000 0.000000 0.000000 0.000000 -0.380287 3.888121 -1.024075 50.733021 43.321315 -16.491494 -1.509181 51.398542 -0.147650 -15.408168 9.198129 -1.336649 0.070895 -0.609391 0.000000 0.000000 0.000000 0.000000 0.000000 0.000000 0.000000 
3.862613 16.361487 1.312652 4.660279 68.136492 22.387080 2.386314 0.856760 -5.147181 0.085056 0.563609 -4.068070 -3.911318 0.520220 -0.677442 2.828940 -2.363170 -7.666866 -1.434683 -0.106753 0.000775 0.000000 0.000000 0.000000 3.293402 12.144325 3.450620 -57.034973 5.988062 13.985148 -2.938358 -44.209782 -0.009853 4.540973 1.914712 0.077996 -0.213179 0.062128 0.000000 0.000000 0.000000 0.000000 0.000000 0.000000 0.000000 -1.738598 3.674896 -1.356104 47.984897 43.855479 -18.378974 -1.651012 53.375058 -0.159199 -15.697574 9.210428 -1.367389 0.065709 -0.638421 0.000000 0.000000 0.000000 0.000000 0.000000 0.000000 0.000000 
